<?xml version="1.0" standalone="no"?>
<!DOCTYPE svg PUBLIC "-//W3C//DTD SVG 20010904//EN"
 "http://www.w3.org/TR/2001/REC-SVG-20010904/DTD/svg10.dtd">
<svg version="1.0" xmlns="http://www.w3.org/2000/svg"
 width="300.000000pt" height="168.000000pt" viewBox="0 0 300.000000 168.000000"
 preserveAspectRatio="xMidYMid meet">
<metadata>
Created by potrace 1.10, written by Peter Selinger 2001-2011
</metadata>
<g transform="translate(0.000000,168.000000) scale(0.100000,-0.100000)"
fill="#000000" stroke="none">
<path d="M680 840 l0 -211 53 3 c38 2 52 7 52 18 0 10 -10 15 -32 15 l-33 0 0
176 0 177 33 -2 c22 -1 32 3 32 14 0 11 -14 16 -52 18 l-53 3 0 -211z"/>
<path d="M2222 1033 c2 -12 12 -18 32 -18 l28 0 3 -172 3 -173 -34 0 c-28 0
-34 -4 -34 -21 0 -18 5 -20 51 -17 l51 3 0 205 0 205 -52 3 c-45 3 -51 1 -48
-15z"/>
<path d="M2350 1025 c-20 -25 -8 -50 25 -50 24 0 31 5 33 24 6 37 -34 55 -58
26z m47 -20 c1 -16 1 -16 -3 -2 -3 9 -12 17 -20 17 -17 0 -19 -26 -1 -33 9 -4
9 -6 0 -6 -16 -1 -26 17 -19 35 8 22 40 13 43 -11z"/>
<path d="M1517 1014 c-4 -4 -7 -29 -7 -55 l0 -47 -30 15 c-104 51 -190 -102
-103 -183 31 -28 93 -33 114 -8 11 14 13 14 21 0 5 -9 16 -16 24 -16 12 0 14
23 12 147 -3 137 -9 168 -31 147z m-33 -135 c48 -38 22 -119 -39 -119 -32 0
-65 33 -65 65 0 28 40 75 63 75 8 0 26 -9 41 -21z"/>
<path d="M1705 998 c-3 -13 -11 -52 -18 -87 l-13 -65 -39 0 c-30 -1 -41 -5
-43 -19 -3 -16 3 -18 50 -15 l53 3 9 53 c5 28 13 52 16 52 4 0 10 -50 14 -111
4 -61 12 -123 17 -137 10 -25 11 -26 24 -9 7 10 16 41 19 70 8 61 14 73 41 78
28 6 25 33 -3 37 -33 5 -52 -15 -52 -54 0 -19 -4 -34 -8 -34 -5 0 -12 42 -15
93 -9 126 -17 167 -33 167 -8 0 -16 -10 -19 -22z"/>
<path d="M794 927 c-3 -8 -3 -56 -2 -108 3 -86 5 -94 23 -94 18 0 20 8 23 78
3 71 5 79 27 89 41 18 54 -3 57 -90 3 -69 5 -77 23 -77 18 0 20 8 23 77 2 65
6 79 22 88 14 8 26 8 40 0 16 -9 20 -23 22 -88 3 -69 5 -77 23 -77 19 0 20 6
17 85 -3 76 -6 87 -28 108 -31 27 -54 28 -86 2 -25 -19 -26 -19 -43 0 -22 24
-53 26 -83 4 -20 -14 -22 -14 -22 0 0 19 -29 21 -36 3z"/>
<path d="M1174 924 c-17 -8 -36 -26 -43 -40 -14 -31 -14 -89 -1 -115 14 -25
62 -49 97 -49 30 0 93 33 93 49 0 17 -33 21 -50 6 -23 -21 -73 -19 -93 3 -10
10 -17 22 -17 25 0 4 36 7 80 7 l80 0 0 30 c0 41 -25 76 -62 89 -40 14 -47 14
-84 -5z m84 -40 c36 -25 26 -34 -38 -34 -33 0 -60 4 -60 9 0 13 41 41 60 41 9
0 26 -7 38 -16z"/>
<path d="M1930 927 c-19 -7 -35 -19 -35 -27 0 -15 12 -16 73 -4 34 7 62 -8 62
-32 0 -10 -15 -14 -53 -14 -65 0 -97 -20 -97 -61 0 -59 75 -91 128 -53 20 14
22 14 22 -1 0 -10 7 -15 18 -13 14 3 18 16 20 72 4 85 -10 121 -50 135 -37 13
-44 13 -88 -2z m100 -120 c0 -32 -63 -62 -94 -45 -19 11 -21 44 -3 51 28 12
97 7 97 -6z"/>
<path d="M2100 830 c0 -101 2 -111 18 -108 14 3 18 17 22 73 6 83 12 95 50 95
36 0 47 17 27 38 -14 14 -20 14 -44 2 -15 -8 -32 -16 -36 -18 -4 -2 -6 2 -5 9
2 7 -5 15 -14 17 -16 3 -18 -7 -18 -108z"/>
</g>
</svg>
